<svg xmlns="http://www.w3.org/2000/svg" viewBox="0 0 283.94 87.57"><defs><style>.cls-1,.cls-2{fill:#fff;}.cls-1{fill-rule:evenodd;}</style></defs><g id="Layer_2" data-name="Layer 2"><g id="Layer_1-2" data-name="Layer 1">
<path class="cls-1" d="M0,87.28H17.88V0H0Z"/><rect class="cls-2" x="266.06" width="17.88" height="87.28"/><path class="cls-1" d="M205.54,36.41V18.53H187.66a34.43,34.43,0,0,0-25.17,10.24,34,34,0,0,0-10.34,25.06V64.54H170V53.83a16.72,16.72,0,0,1,5.16-12.36,17.11,17.11,0,0,1,12.46-5.1Z"/><path class="cls-1" d="M111.51,69.42h-1.36v0A17.64,17.64,0,0,1,97,62H77.34a33.82,33.82,0,0,0,8.94,15.07A34.34,34.34,0,0,0,111.51,87.3H170V69.42H111.51Z"/><rect class="cls-2" x="50.25" y="61.98" width="17.88" height="25.3"/><path class="cls-1" d="M94.69,57.1h51.8a36.39,36.39,0,0,0,.39-5.28,35,35,0,0,0-35.37-35.26A34.37,34.37,0,0,0,86.35,26.81a33.62,33.62,0,0,0-9.48,16.91H68.13V0H50.25V43.72H22.76V57.1H94.69Zm16.82-22.66q10.47,0,15.37,9.28H96Q100.91,34.45,111.51,34.44Z"/><path class="cls-1" d="M240.77,52.07a17.62,17.62,0,1,1-35.23,0V41.29H187.66V52.07A34.21,34.21,0,0,0,198,77.23a35.44,35.44,0,0,0,60.67-25.16V16.7H240.77Z"/></g></g></svg>